<svg width="79" height="79" viewBox="0 0 79 79" fill="none" xmlns="http://www.w3.org/2000/svg">
  <style>
    path { fill: #000000; }
    @media (prefers-color-scheme: dark) {
      path { fill: #ffffff; }
    }
  </style>
<path d="M68.7343 19.1496L71.8839 15.2662L64.1172 8.96711L60.9677 12.8504L68.7343 19.1496ZM39.5868 47.1501L36.4497 51.0435C38.5951 52.7721 41.7346 52.4395 43.4701 50.2996L39.5868 47.1501ZM30.1371 33.1148C27.9869 31.3822 24.8392 31.7208 23.1066 33.8711C21.374 36.0213 21.7126 39.169 23.8629 40.9016L30.1371 33.1148ZM15.0624 15.0468L18.5952 18.5851L18.5952 18.5851L15.0624 15.0468ZM78.7103 39.302V34.302H68.7103V39.302H78.7103ZM60.9677 12.8504L35.7035 44.0005L43.4701 50.2996L68.7343 19.1496L60.9677 12.8504ZM42.7239 43.2567L30.1371 33.1148L23.8629 40.9016L36.4497 51.0435L42.7239 43.2567ZM9.99995 39.302C9.99995 31.5332 13.0908 24.0809 18.5952 18.5851L11.5296 11.5086C4.14818 18.8785 -4.57764e-05 28.876 -4.57764e-05 39.302H9.99995ZM18.5952 18.5851C24.0997 13.089 31.5672 9.99999 39.3551 9.99999V-1.14441e-05C28.92 -1.14441e-05 18.9107 4.13885 11.5296 11.5086L18.5952 18.5851ZM68.7103 39.302C68.7103 47.0709 65.6194 54.5232 60.1151 60.019L67.1807 67.0955C74.5621 59.7256 78.7103 49.7281 78.7103 39.302H68.7103ZM60.1151 60.019C54.6106 65.515 47.1431 68.6041 39.3551 68.6041V78.6041C49.7903 78.6041 59.7996 74.4652 67.1807 67.0955L60.1151 60.019ZM39.3551 68.6041C31.5672 68.6041 24.0997 65.515 18.5952 60.019L11.5296 67.0955C18.9107 74.4652 28.92 78.6041 39.3551 78.6041V68.6041ZM18.5952 60.019C13.0908 54.5232 9.99995 47.0709 9.99995 39.302H-4.57764e-05C-4.57764e-05 49.7281 4.14818 59.7256 11.5296 67.0955L18.5952 60.019Z" fill="white"/>
</svg>
